# xmcd
#
# Track frame offsets:
# 150
# 16306
# 29377
# 45446
#
# Disc length: 820 seconds
#
# Revision: 1
# Processed by: cddbd v1.5PL3 Copyright (c) Steve Scherf et al.
# Submitted via: Axialis_AX_CDPlayer 2.6
#
DISCID=24033204
DTITLE=Cledus T. Judd - The Original Dixie Hick
DYEAR=1900
DGENRE=
TTITLE0=Martie, Emily and Natalie
TTITLE1=The Chicks Did It
TTITLE2=Natalie
TTITLE3=Toby vs. Natalie
EXTD=
EXTT0=
EXTT1=
EXTT2=
EXTT3=
PLAYORDER=
